<svg xmlns="http://www.w3.org/2000/svg" version="1.1" xmlns:xlink="http://www.w3.org/1999/xlink" xmlns:svgjs="http://svgjs.com/svgjs" width="1920" height="1080" preserveAspectRatio="none" viewBox="0 0 1920 1080"><g mask="url(&quot;#SvgjsMask1032&quot;)" fill="none"><rect width="1920" height="1080" x="0" y="0" fill="rgba(11, 79, 108, 1)"></rect><path d="M1744.32 553.02L1816.74 553.02L1816.74 625.44L1744.32 625.44z" fill="rgba(33, 140, 116, 1)"></path><path d="M63.14 665.74L79.62 665.74L79.62 724.13L63.14 724.13z" fill="rgba(255, 242, 0, 1)"></path><path d="M821.03 825.97a59.05 59.05 0 1 0 31.08-113.93z" stroke="rgba(255, 56, 56, 1)"></path><path d="M1199.21 884.93L1219.17 884.93L1219.17 904.89L1199.21 904.89z" fill="rgba(255, 242, 0, 1)"></path><path d="M1831.49 261.39L1912.42 261.39L1912.42 329.7L1831.49 329.7z" fill="rgba(33, 140, 116, 1)"></path><path d="M1729.77 328.98L1738.19 328.98L1738.19 414.54L1729.77 414.54z" stroke="rgba(255, 242, 0, 1)"></path><path d="M553.65 298.96a58.04 58.04 0 1 0-89.25-74.23z" stroke="rgba(255, 242, 0, 1)"></path><path d="M1517.49 913.07L1571.29 913.07L1571.29 966.87L1517.49 966.87z" fill="rgba(255, 56, 56, 1)"></path><path d="M883.6 643.44 a19.2 19.2 0 1 0 38.4 0 a19.2 19.2 0 1 0 -38.4 0z" stroke="rgba(33, 140, 116, 1)"></path><path d="M753.36 1067.1a5.6 5.6 0 1 0 7.91-7.94z" stroke="rgba(255, 56, 56, 1)"></path><path d="M299 315.29 a43.65 43.65 0 1 0 87.3 0 a43.65 43.65 0 1 0 -87.3 0z" fill="rgba(33, 140, 116, 1)"></path><path d="M520.58 937.14L531.77 937.14L531.77 1037.3L520.58 1037.3z" fill="rgba(33, 140, 116, 1)"></path><path d="M1647.63 816.58L1713.65 816.58L1713.65 898.01L1647.63 898.01z" stroke="rgba(33, 140, 116, 1)"></path><path d="M1547.59 150.87L1583.21 150.87L1583.21 202.73L1547.59 202.73z" fill="rgba(255, 56, 56, 1)"></path><path d="M83.61 909 a58.38 58.38 0 1 0 116.76 0 a58.38 58.38 0 1 0 -116.76 0z" fill="rgba(255, 242, 0, 1)"></path><path d="M1119.33 107.43L1223.59 107.43L1223.59 144.1L1119.33 144.1z" stroke="rgba(255, 56, 56, 1)"></path><path d="M495.79 711.05L585.46 711.05L585.46 800.72L495.79 800.72z" stroke="rgba(255, 242, 0, 1)"></path><path d="M1791.96 1000.03 a96.04 96.04 0 1 0 192.08 0 a96.04 96.04 0 1 0 -192.08 0z" fill="rgba(255, 242, 0, 1)"></path><path d="M970.35 158.78 a106.06 106.06 0 1 0 212.12 0 a106.06 106.06 0 1 0 -212.12 0z" stroke="rgba(255, 56, 56, 1)"></path><path d="M493.06 646.5L554.09 646.5L554.09 671.85L493.06 671.85z" fill="rgba(255, 56, 56, 1)"></path><path d="M379.29 720.19L486.71 720.19L486.71 827.61L379.29 827.61z" fill="rgba(255, 242, 0, 1)"></path><path d="M1063.62 389.28 a31.77 31.77 0 1 0 63.54 0 a31.77 31.77 0 1 0 -63.54 0z" stroke="rgba(33, 140, 116, 1)"></path><path d="M1572.53 376.79L1584.48 376.79L1584.48 405.8L1572.53 405.8z" stroke="rgba(33, 140, 116, 1)"></path></g><defs><mask id="SvgjsMask1032"><rect width="1920" height="1080" fill="#ffffff"></rect></mask></defs></svg>