<svg xmlns="http://www.w3.org/2000/svg" version="1.1" xmlns:xlink="http://www.w3.org/1999/xlink" xmlns:svgjs="http://svgjs.com/svgjs" width="1440" height="560" preserveAspectRatio="none" viewBox="0 0 1440 560"><g mask="url(&quot;#SvgjsMask1015&quot;)" fill="none"><rect width="1440" height="560" x="0" y="0" fill="rgba(11, 79, 108, 1)"></rect><path d="M1389.66 151a17.78 17.78 0 1 0 1.07-35.54z" stroke="rgba(233, 33, 32, 1)"></path><path d="M582.68 235.08a10.56 10.56 0 1 0 1.39 21.07z" fill="rgba(3, 155, 13, 1)"></path><path d="M940.49 405.14L963.1 405.14L963.1 427.75L940.49 427.75z" fill="rgba(3, 155, 13, 1)"></path><path d="M1325.38 13.55a25.48 25.48 0 1 0 44.72 24.44z" fill="rgba(245, 209, 0, 1)"></path><path d="M279.89 437.38 a3.98 3.98 0 1 0 7.96 0 a3.98 3.98 0 1 0 -7.96 0z" stroke="rgba(245, 209, 0, 1)"></path><path d="M1270.97 239.35a23.7 23.7 0 1 0 46.74-7.86z" stroke="rgba(233, 33, 32, 1)"></path><path d="M817.78 418.42 a25.46 25.46 0 1 0 50.92 0 a25.46 25.46 0 1 0 -50.92 0z" stroke="rgba(245, 209, 0, 1)"></path><path d="M541.5 311.36a37.42 37.42 0 1 0 0.52 74.84z" fill="rgba(3, 155, 13, 1)"></path><path d="M331.58 120.64 a8.6 8.6 0 1 0 17.2 0 a8.6 8.6 0 1 0 -17.2 0z" fill="rgba(3, 155, 13, 1)"></path><path d="M215.78 64.08L257.05 64.08L257.05 105.35L215.78 105.35z" stroke="rgba(245, 209, 0, 1)"></path><path d="M614.48 518.43L621.79 518.43L621.79 560.26L614.48 560.26z" fill="rgba(233, 33, 32, 1)"></path><path d="M350.5 183.39 a20.06 20.06 0 1 0 40.12 0 a20.06 20.06 0 1 0 -40.12 0z" fill="rgba(3, 155, 13, 1)"></path><path d="M377.07 142.86a6.16 6.16 0 1 0 7.12-10.05z" stroke="rgba(245, 209, 0, 1)"></path><path d="M1224.31 353.62L1256.13 353.62L1256.13 375.93L1224.31 375.93z" fill="rgba(233, 33, 32, 1)"></path><path d="M1226.8 364.7 a50.17 50.17 0 1 0 100.34 0 a50.17 50.17 0 1 0 -100.34 0z" stroke="rgba(3, 155, 13, 1)"></path><path d="M1364.95 235.07L1368.49 235.07L1368.49 266.82L1364.95 266.82z" fill="rgba(3, 155, 13, 1)"></path><path d="M1378.65 100.59a47.12 47.12 0 1 0-74.63 57.55z" stroke="rgba(3, 155, 13, 1)"></path><path d="M599.01 537.13L607.11 537.13L607.11 563.98L599.01 563.98z" fill="rgba(3, 155, 13, 1)"></path><path d="M1259.97 201.13a41.5 41.5 0 1 0 70.1-44.44z" fill="rgba(245, 209, 0, 1)"></path><path d="M773.95 310.83L778.16 310.83L778.16 315.04L773.95 315.04z" stroke="rgba(3, 155, 13, 1)"></path><path d="M190.29 520.28 a7.83 7.83 0 1 0 15.66 0 a7.83 7.83 0 1 0 -15.66 0z" fill="rgba(3, 155, 13, 1)"></path><path d="M900.13 87.64 a40.57 40.57 0 1 0 81.14 0 a40.57 40.57 0 1 0 -81.14 0z" fill="rgba(245, 209, 0, 1)"></path><path d="M931.61 409.23a20.65 20.65 0 1 0-41.03-4.76z" fill="rgba(3, 155, 13, 1)"></path><path d="M995.78 545.42L1015.48 545.42L1015.48 554.95L995.78 554.95z" fill="rgba(245, 209, 0, 1)"></path><path d="M1397.02 103.32L1438.99 103.32L1438.99 127.89L1397.02 127.89z" stroke="rgba(233, 33, 32, 1)"></path><path d="M529.79 2.16 a53 53 0 1 0 106 0 a53 53 0 1 0 -106 0z" stroke="rgba(233, 33, 32, 1)"></path><path d="M825.96 52.48L852.72 52.48L852.72 85.51L825.96 85.51z" fill="rgba(245, 209, 0, 1)"></path><path d="M779.61 458.78L793.8 458.78L793.8 507.71L779.61 507.71z" stroke="rgba(245, 209, 0, 1)"></path><path d="M129.01 424.17a54.85 54.85 0 1 0-47.18 99.03z" fill="rgba(3, 155, 13, 1)"></path><path d="M402.26 392.9 a51.35 51.35 0 1 0 102.7 0 a51.35 51.35 0 1 0 -102.7 0z" fill="rgba(233, 33, 32, 1)"></path><path d="M154.21 425.06L208.98 425.06L208.98 479.83L154.21 479.83z" stroke="rgba(3, 155, 13, 1)"></path><path d="M-6.42 421.61a49.5 49.5 0 1 0 82.8 54.27z" stroke="rgba(3, 155, 13, 1)"></path><path d="M1127.65 344.24L1129.74 344.24L1129.74 351.08L1127.65 351.08z" stroke="rgba(245, 209, 0, 1)"></path></g><defs><mask id="SvgjsMask1015"><rect width="1440" height="560" fill="#ffffff"></rect></mask></defs></svg>