<svg xmlns="http://www.w3.org/2000/svg" version="1.1" xmlns:xlink="http://www.w3.org/1999/xlink" xmlns:svgjs="http://svgjs.com/svgjs" width="1440" height="560" preserveAspectRatio="none" viewBox="0 0 1440 560"><g mask="url(&quot;#SvgjsMask1015&quot;)" fill="none"><path d="M601 548L766 383" stroke-width="6" stroke="url(#SvgjsLinearGradient1016)" stroke-linecap="round" class="TopRight"></path><path d="M1236 414L942 708" stroke-width="6" stroke="url(#SvgjsLinearGradient1016)" stroke-linecap="round" class="TopRight"></path><path d="M1301 480L1590 191" stroke-width="8" stroke="url(#SvgjsLinearGradient1016)" stroke-linecap="round" class="TopRight"></path><path d="M43 109L-258 410" stroke-width="8" stroke="url(#SvgjsLinearGradient1017)" stroke-linecap="round" class="BottomLeft"></path><path d="M472 258L810 -80" stroke-width="10" stroke="url(#SvgjsLinearGradient1017)" stroke-linecap="round" class="BottomLeft"></path><path d="M789 228L1146 -129" stroke-width="10" stroke="url(#SvgjsLinearGradient1016)" stroke-linecap="round" class="TopRight"></path><path d="M1053 502L1430 125" stroke-width="10" stroke="url(#SvgjsLinearGradient1017)" stroke-linecap="round" class="BottomLeft"></path><path d="M451 317L174 594" stroke-width="8" stroke="url(#SvgjsLinearGradient1017)" stroke-linecap="round" class="BottomLeft"></path><path d="M1118 461L743 836" stroke-width="10" stroke="url(#SvgjsLinearGradient1017)" stroke-linecap="round" class="BottomLeft"></path><path d="M799 283L1001 81" stroke-width="8" stroke="url(#SvgjsLinearGradient1016)" stroke-linecap="round" class="TopRight"></path><path d="M1267 32L1462 -163" stroke-width="10" stroke="url(#SvgjsLinearGradient1017)" stroke-linecap="round" class="BottomLeft"></path><path d="M797 273L423 647" stroke-width="8" stroke="url(#SvgjsLinearGradient1016)" stroke-linecap="round" class="TopRight"></path><path d="M1243 57L1542 -242" stroke-width="10" stroke="url(#SvgjsLinearGradient1016)" stroke-linecap="round" class="TopRight"></path><path d="M1089 229L868 450" stroke-width="6" stroke="url(#SvgjsLinearGradient1017)" stroke-linecap="round" class="BottomLeft"></path><path d="M495 325L234 586" stroke-width="10" stroke="url(#SvgjsLinearGradient1017)" stroke-linecap="round" class="BottomLeft"></path><path d="M320 516L-33 869" stroke-width="6" stroke="url(#SvgjsLinearGradient1016)" stroke-linecap="round" class="TopRight"></path><path d="M564 417L763 218" stroke-width="10" stroke="url(#SvgjsLinearGradient1017)" stroke-linecap="round" class="BottomLeft"></path><path d="M276 338L-69 683" stroke-width="10" stroke="url(#SvgjsLinearGradient1017)" stroke-linecap="round" class="BottomLeft"></path><path d="M1155 48L786 417" stroke-width="8" stroke="url(#SvgjsLinearGradient1017)" stroke-linecap="round" class="BottomLeft"></path><path d="M810 199L434 575" stroke-width="6" stroke="url(#SvgjsLinearGradient1016)" stroke-linecap="round" class="TopRight"></path><path d="M887 504L736 655" stroke-width="8" stroke="url(#SvgjsLinearGradient1016)" stroke-linecap="round" class="TopRight"></path><path d="M359 140L159 340" stroke-width="6" stroke="url(#SvgjsLinearGradient1017)" stroke-linecap="round" class="BottomLeft"></path><path d="M418 87L126 379" stroke-width="10" stroke="url(#SvgjsLinearGradient1017)" stroke-linecap="round" class="BottomLeft"></path><path d="M1364 386L1011 739" stroke-width="10" stroke="url(#SvgjsLinearGradient1016)" stroke-linecap="round" class="TopRight"></path><path d="M241 412L596 57" stroke-width="8" stroke="url(#SvgjsLinearGradient1017)" stroke-linecap="round" class="BottomLeft"></path><path d="M388 309L683 14" stroke-width="6" stroke="url(#SvgjsLinearGradient1017)" stroke-linecap="round" class="BottomLeft"></path><path d="M295 254L-49 598" stroke-width="10" stroke="url(#SvgjsLinearGradient1017)" stroke-linecap="round" class="BottomLeft"></path><path d="M1212 222L980 454" stroke-width="10" stroke="url(#SvgjsLinearGradient1016)" stroke-linecap="round" class="TopRight"></path><path d="M364 245L0 609" stroke-width="10" stroke="url(#SvgjsLinearGradient1017)" stroke-linecap="round" class="BottomLeft"></path><path d="M273 509L21 761" stroke-width="6" stroke="url(#SvgjsLinearGradient1017)" stroke-linecap="round" class="BottomLeft"></path><path d="M790 231L455 566" stroke-width="10" stroke="url(#SvgjsLinearGradient1016)" stroke-linecap="round" class="TopRight"></path><path d="M133 520L-284 937" stroke-width="6" stroke="url(#SvgjsLinearGradient1016)" stroke-linecap="round" class="TopRight"></path><path d="M1240 463L1565 138" stroke-width="8" stroke="url(#SvgjsLinearGradient1016)" stroke-linecap="round" class="TopRight"></path><path d="M569 519L225 863" stroke-width="6" stroke="url(#SvgjsLinearGradient1017)" stroke-linecap="round" class="BottomLeft"></path><path d="M841 313L1116 38" stroke-width="10" stroke="url(#SvgjsLinearGradient1016)" stroke-linecap="round" class="TopRight"></path><path d="M500 102L736 -134" stroke-width="8" stroke="url(#SvgjsLinearGradient1017)" stroke-linecap="round" class="BottomLeft"></path><path d="M367 189L737 -181" stroke-width="8" stroke="url(#SvgjsLinearGradient1016)" stroke-linecap="round" class="TopRight"></path><path d="M1366 490L1121 735" stroke-width="6" stroke="url(#SvgjsLinearGradient1017)" stroke-linecap="round" class="BottomLeft"></path><path d="M724 75L569 230" stroke-width="8" stroke="url(#SvgjsLinearGradient1016)" stroke-linecap="round" class="TopRight"></path></g><defs><mask id="SvgjsMask1015"><rect width="1440" height="560" fill="#ffffff"></rect></mask><linearGradient x1="0%" y1="100%" x2="100%" y2="0%" id="SvgjsLinearGradient1016"><stop stop-color="rgba(11, 79, 108, 0)" offset="0"></stop><stop stop-color="rgba(11, 79, 108, 1)" offset="1"></stop></linearGradient><linearGradient x1="100%" y1="0%" x2="0%" y2="100%" id="SvgjsLinearGradient1017"><stop stop-color="rgba(11, 79, 108, 0)" offset="0"></stop><stop stop-color="rgba(11, 79, 108, 1)" offset="1"></stop></linearGradient></defs></svg>